<?xml version="1.0" encoding="utf-8" standalone="no"?>
<!DOCTYPE svg PUBLIC "-//W3C//DTD SVG 1.1//EN"
  "http://www.w3.org/Graphics/SVG/1.1/DTD/svg11.dtd">
<svg xmlns:xlink="http://www.w3.org/1999/xlink" width="1382.4pt" height="709.2pt" viewBox="0 0 1382.4 709.2" xmlns="http://www.w3.org/2000/svg" version="1.1">
 <metadata>
  <rdf:RDF xmlns:dc="http://purl.org/dc/elements/1.1/" xmlns:cc="http://creativecommons.org/ns#" xmlns:rdf="http://www.w3.org/1999/02/22-rdf-syntax-ns#">
   <cc:Work>
    <dc:type rdf:resource="http://purl.org/dc/dcmitype/StillImage"/>
    <dc:date>2022-10-23T23:17:59.539954</dc:date>
    <dc:format>image/svg+xml</dc:format>
    <dc:creator>
     <cc:Agent>
      <dc:title>Matplotlib v3.5.3, https://matplotlib.org/</dc:title>
     </cc:Agent>
    </dc:creator>
   </cc:Work>
  </rdf:RDF>
 </metadata>
 <defs>
  <style type="text/css">*{stroke-linejoin: round; stroke-linecap: butt}</style>
 </defs>
 <g id="figure_1">
  <g id="patch_1">
   <path d="M 0 709.2 
L 1382.4 709.2 
L 1382.4 0 
L 0 0 
z
" style="fill: #ffffff"/>
  </g>
  <g id="axes_1">
   <g id="patch_2">
    <path d="M 172.8 631.188 
L 1244.16 631.188 
L 1244.16 85.104 
L 172.8 85.104 
z
" style="fill: #ffffff"/>
   </g>
   <g id="matplotlib.axis_1">
    <g id="xtick_1">
     <g id="line2d_1">
      <defs>
       <path id="m7607ad01a7" d="M 0 0 
L 0 3.5 
" style="stroke: #000000; stroke-width: 0.8"/>
      </defs>
      <g>
       <use xlink:href="#m7607ad01a7" x="211.660165" y="631.188" style="stroke: #000000; stroke-width: 0.8"/>
      </g>
     </g>
     <g id="text_1">
      <!-- 0 -->
      <g transform="translate(208.478915 645.786437)scale(0.1 -0.1)">
       <defs>
        <path id="DejaVuSans-30" d="M 2034 4250 
Q 1547 4250 1301 3770 
Q 1056 3291 1056 2328 
Q 1056 1369 1301 889 
Q 1547 409 2034 409 
Q 2525 409 2770 889 
Q 3016 1369 3016 2328 
Q 3016 3291 2770 3770 
Q 2525 4250 2034 4250 
z
M 2034 4750 
Q 2819 4750 3233 4129 
Q 3647 3509 3647 2328 
Q 3647 1150 3233 529 
Q 2819 -91 2034 -91 
Q 1250 -91 836 529 
Q 422 1150 422 2328 
Q 422 3509 836 4129 
Q 1250 4750 2034 4750 
z
" transform="scale(0.015625)"/>
       </defs>
       <use xlink:href="#DejaVuSans-30"/>
      </g>
     </g>
    </g>
    <g id="xtick_2">
     <g id="line2d_2">
      <g>
       <use xlink:href="#m7607ad01a7" x="408.420496" y="631.188" style="stroke: #000000; stroke-width: 0.8"/>
      </g>
     </g>
     <g id="text_2">
      <!-- 20 -->
      <g transform="translate(402.057996 645.786437)scale(0.1 -0.1)">
       <defs>
        <path id="DejaVuSans-32" d="M 1228 531 
L 3431 531 
L 3431 0 
L 469 0 
L 469 531 
Q 828 903 1448 1529 
Q 2069 2156 2228 2338 
Q 2531 2678 2651 2914 
Q 2772 3150 2772 3378 
Q 2772 3750 2511 3984 
Q 2250 4219 1831 4219 
Q 1534 4219 1204 4116 
Q 875 4013 500 3803 
L 500 4441 
Q 881 4594 1212 4672 
Q 1544 4750 1819 4750 
Q 2544 4750 2975 4387 
Q 3406 4025 3406 3419 
Q 3406 3131 3298 2873 
Q 3191 2616 2906 2266 
Q 2828 2175 2409 1742 
Q 1991 1309 1228 531 
z
" transform="scale(0.015625)"/>
       </defs>
       <use xlink:href="#DejaVuSans-32"/>
       <use xlink:href="#DejaVuSans-30" x="63.623047"/>
      </g>
     </g>
    </g>
    <g id="xtick_3">
     <g id="line2d_3">
      <g>
       <use xlink:href="#m7607ad01a7" x="605.180826" y="631.188" style="stroke: #000000; stroke-width: 0.8"/>
      </g>
     </g>
     <g id="text_3">
      <!-- 40 -->
      <g transform="translate(598.818326 645.786437)scale(0.1 -0.1)">
       <defs>
        <path id="DejaVuSans-34" d="M 2419 4116 
L 825 1625 
L 2419 1625 
L 2419 4116 
z
M 2253 4666 
L 3047 4666 
L 3047 1625 
L 3713 1625 
L 3713 1100 
L 3047 1100 
L 3047 0 
L 2419 0 
L 2419 1100 
L 313 1100 
L 313 1709 
L 2253 4666 
z
" transform="scale(0.015625)"/>
       </defs>
       <use xlink:href="#DejaVuSans-34"/>
       <use xlink:href="#DejaVuSans-30" x="63.623047"/>
      </g>
     </g>
    </g>
    <g id="xtick_4">
     <g id="line2d_4">
      <g>
       <use xlink:href="#m7607ad01a7" x="801.941157" y="631.188" style="stroke: #000000; stroke-width: 0.8"/>
      </g>
     </g>
     <g id="text_4">
      <!-- 60 -->
      <g transform="translate(795.578657 645.786437)scale(0.1 -0.1)">
       <defs>
        <path id="DejaVuSans-36" d="M 2113 2584 
Q 1688 2584 1439 2293 
Q 1191 2003 1191 1497 
Q 1191 994 1439 701 
Q 1688 409 2113 409 
Q 2538 409 2786 701 
Q 3034 994 3034 1497 
Q 3034 2003 2786 2293 
Q 2538 2584 2113 2584 
z
M 3366 4563 
L 3366 3988 
Q 3128 4100 2886 4159 
Q 2644 4219 2406 4219 
Q 1781 4219 1451 3797 
Q 1122 3375 1075 2522 
Q 1259 2794 1537 2939 
Q 1816 3084 2150 3084 
Q 2853 3084 3261 2657 
Q 3669 2231 3669 1497 
Q 3669 778 3244 343 
Q 2819 -91 2113 -91 
Q 1303 -91 875 529 
Q 447 1150 447 2328 
Q 447 3434 972 4092 
Q 1497 4750 2381 4750 
Q 2619 4750 2861 4703 
Q 3103 4656 3366 4563 
z
" transform="scale(0.015625)"/>
       </defs>
       <use xlink:href="#DejaVuSans-36"/>
       <use xlink:href="#DejaVuSans-30" x="63.623047"/>
      </g>
     </g>
    </g>
    <g id="xtick_5">
     <g id="line2d_5">
      <g>
       <use xlink:href="#m7607ad01a7" x="998.701488" y="631.188" style="stroke: #000000; stroke-width: 0.8"/>
      </g>
     </g>
     <g id="text_5">
      <!-- 80 -->
      <g transform="translate(992.338988 645.786437)scale(0.1 -0.1)">
       <defs>
        <path id="DejaVuSans-38" d="M 2034 2216 
Q 1584 2216 1326 1975 
Q 1069 1734 1069 1313 
Q 1069 891 1326 650 
Q 1584 409 2034 409 
Q 2484 409 2743 651 
Q 3003 894 3003 1313 
Q 3003 1734 2745 1975 
Q 2488 2216 2034 2216 
z
M 1403 2484 
Q 997 2584 770 2862 
Q 544 3141 544 3541 
Q 544 4100 942 4425 
Q 1341 4750 2034 4750 
Q 2731 4750 3128 4425 
Q 3525 4100 3525 3541 
Q 3525 3141 3298 2862 
Q 3072 2584 2669 2484 
Q 3125 2378 3379 2068 
Q 3634 1759 3634 1313 
Q 3634 634 3220 271 
Q 2806 -91 2034 -91 
Q 1263 -91 848 271 
Q 434 634 434 1313 
Q 434 1759 690 2068 
Q 947 2378 1403 2484 
z
M 1172 3481 
Q 1172 3119 1398 2916 
Q 1625 2713 2034 2713 
Q 2441 2713 2670 2916 
Q 2900 3119 2900 3481 
Q 2900 3844 2670 4047 
Q 2441 4250 2034 4250 
Q 1625 4250 1398 4047 
Q 1172 3844 1172 3481 
z
" transform="scale(0.015625)"/>
       </defs>
       <use xlink:href="#DejaVuSans-38"/>
       <use xlink:href="#DejaVuSans-30" x="63.623047"/>
      </g>
     </g>
    </g>
    <g id="xtick_6">
     <g id="line2d_6">
      <g>
       <use xlink:href="#m7607ad01a7" x="1195.461818" y="631.188" style="stroke: #000000; stroke-width: 0.8"/>
      </g>
     </g>
     <g id="text_6">
      <!-- 100 -->
      <g transform="translate(1185.918068 645.786437)scale(0.1 -0.1)">
       <defs>
        <path id="DejaVuSans-31" d="M 794 531 
L 1825 531 
L 1825 4091 
L 703 3866 
L 703 4441 
L 1819 4666 
L 2450 4666 
L 2450 531 
L 3481 531 
L 3481 0 
L 794 0 
L 794 531 
z
" transform="scale(0.015625)"/>
       </defs>
       <use xlink:href="#DejaVuSans-31"/>
       <use xlink:href="#DejaVuSans-30" x="63.623047"/>
       <use xlink:href="#DejaVuSans-30" x="127.246094"/>
      </g>
     </g>
    </g>
    <g id="text_7">
     <!-- Generations -->
     <g transform="translate(653.584219 665.543312)scale(0.18 -0.18)">
      <defs>
       <path id="DejaVuSans-47" d="M 3809 666 
L 3809 1919 
L 2778 1919 
L 2778 2438 
L 4434 2438 
L 4434 434 
Q 4069 175 3628 42 
Q 3188 -91 2688 -91 
Q 1594 -91 976 548 
Q 359 1188 359 2328 
Q 359 3472 976 4111 
Q 1594 4750 2688 4750 
Q 3144 4750 3555 4637 
Q 3966 4525 4313 4306 
L 4313 3634 
Q 3963 3931 3569 4081 
Q 3175 4231 2741 4231 
Q 1884 4231 1454 3753 
Q 1025 3275 1025 2328 
Q 1025 1384 1454 906 
Q 1884 428 2741 428 
Q 3075 428 3337 486 
Q 3600 544 3809 666 
z
" transform="scale(0.015625)"/>
       <path id="DejaVuSans-65" d="M 3597 1894 
L 3597 1613 
L 953 1613 
Q 991 1019 1311 708 
Q 1631 397 2203 397 
Q 2534 397 2845 478 
Q 3156 559 3463 722 
L 3463 178 
Q 3153 47 2828 -22 
Q 2503 -91 2169 -91 
Q 1331 -91 842 396 
Q 353 884 353 1716 
Q 353 2575 817 3079 
Q 1281 3584 2069 3584 
Q 2775 3584 3186 3129 
Q 3597 2675 3597 1894 
z
M 3022 2063 
Q 3016 2534 2758 2815 
Q 2500 3097 2075 3097 
Q 1594 3097 1305 2825 
Q 1016 2553 972 2059 
L 3022 2063 
z
" transform="scale(0.015625)"/>
       <path id="DejaVuSans-6e" d="M 3513 2113 
L 3513 0 
L 2938 0 
L 2938 2094 
Q 2938 2591 2744 2837 
Q 2550 3084 2163 3084 
Q 1697 3084 1428 2787 
Q 1159 2491 1159 1978 
L 1159 0 
L 581 0 
L 581 3500 
L 1159 3500 
L 1159 2956 
Q 1366 3272 1645 3428 
Q 1925 3584 2291 3584 
Q 2894 3584 3203 3211 
Q 3513 2838 3513 2113 
z
" transform="scale(0.015625)"/>
       <path id="DejaVuSans-72" d="M 2631 2963 
Q 2534 3019 2420 3045 
Q 2306 3072 2169 3072 
Q 1681 3072 1420 2755 
Q 1159 2438 1159 1844 
L 1159 0 
L 581 0 
L 581 3500 
L 1159 3500 
L 1159 2956 
Q 1341 3275 1631 3429 
Q 1922 3584 2338 3584 
Q 2397 3584 2469 3576 
Q 2541 3569 2628 3553 
L 2631 2963 
z
" transform="scale(0.015625)"/>
       <path id="DejaVuSans-61" d="M 2194 1759 
Q 1497 1759 1228 1600 
Q 959 1441 959 1056 
Q 959 750 1161 570 
Q 1363 391 1709 391 
Q 2188 391 2477 730 
Q 2766 1069 2766 1631 
L 2766 1759 
L 2194 1759 
z
M 3341 1997 
L 3341 0 
L 2766 0 
L 2766 531 
Q 2569 213 2275 61 
Q 1981 -91 1556 -91 
Q 1019 -91 701 211 
Q 384 513 384 1019 
Q 384 1609 779 1909 
Q 1175 2209 1959 2209 
L 2766 2209 
L 2766 2266 
Q 2766 2663 2505 2880 
Q 2244 3097 1772 3097 
Q 1472 3097 1187 3025 
Q 903 2953 641 2809 
L 641 3341 
Q 956 3463 1253 3523 
Q 1550 3584 1831 3584 
Q 2591 3584 2966 3190 
Q 3341 2797 3341 1997 
z
" transform="scale(0.015625)"/>
       <path id="DejaVuSans-74" d="M 1172 4494 
L 1172 3500 
L 2356 3500 
L 2356 3053 
L 1172 3053 
L 1172 1153 
Q 1172 725 1289 603 
Q 1406 481 1766 481 
L 2356 481 
L 2356 0 
L 1766 0 
Q 1100 0 847 248 
Q 594 497 594 1153 
L 594 3053 
L 172 3053 
L 172 3500 
L 594 3500 
L 594 4494 
L 1172 4494 
z
" transform="scale(0.015625)"/>
       <path id="DejaVuSans-69" d="M 603 3500 
L 1178 3500 
L 1178 0 
L 603 0 
L 603 3500 
z
M 603 4863 
L 1178 4863 
L 1178 4134 
L 603 4134 
L 603 4863 
z
" transform="scale(0.015625)"/>
       <path id="DejaVuSans-6f" d="M 1959 3097 
Q 1497 3097 1228 2736 
Q 959 2375 959 1747 
Q 959 1119 1226 758 
Q 1494 397 1959 397 
Q 2419 397 2687 759 
Q 2956 1122 2956 1747 
Q 2956 2369 2687 2733 
Q 2419 3097 1959 3097 
z
M 1959 3584 
Q 2709 3584 3137 3096 
Q 3566 2609 3566 1747 
Q 3566 888 3137 398 
Q 2709 -91 1959 -91 
Q 1206 -91 779 398 
Q 353 888 353 1747 
Q 353 2609 779 3096 
Q 1206 3584 1959 3584 
z
" transform="scale(0.015625)"/>
       <path id="DejaVuSans-73" d="M 2834 3397 
L 2834 2853 
Q 2591 2978 2328 3040 
Q 2066 3103 1784 3103 
Q 1356 3103 1142 2972 
Q 928 2841 928 2578 
Q 928 2378 1081 2264 
Q 1234 2150 1697 2047 
L 1894 2003 
Q 2506 1872 2764 1633 
Q 3022 1394 3022 966 
Q 3022 478 2636 193 
Q 2250 -91 1575 -91 
Q 1294 -91 989 -36 
Q 684 19 347 128 
L 347 722 
Q 666 556 975 473 
Q 1284 391 1588 391 
Q 1994 391 2212 530 
Q 2431 669 2431 922 
Q 2431 1156 2273 1281 
Q 2116 1406 1581 1522 
L 1381 1569 
Q 847 1681 609 1914 
Q 372 2147 372 2553 
Q 372 3047 722 3315 
Q 1072 3584 1716 3584 
Q 2034 3584 2315 3537 
Q 2597 3491 2834 3397 
z
" transform="scale(0.015625)"/>
      </defs>
      <use xlink:href="#DejaVuSans-47"/>
      <use xlink:href="#DejaVuSans-65" x="77.490234"/>
      <use xlink:href="#DejaVuSans-6e" x="139.013672"/>
      <use xlink:href="#DejaVuSans-65" x="202.392578"/>
      <use xlink:href="#DejaVuSans-72" x="263.916016"/>
      <use xlink:href="#DejaVuSans-61" x="305.029297"/>
      <use xlink:href="#DejaVuSans-74" x="366.308594"/>
      <use xlink:href="#DejaVuSans-69" x="405.517578"/>
      <use xlink:href="#DejaVuSans-6f" x="433.300781"/>
      <use xlink:href="#DejaVuSans-6e" x="494.482422"/>
      <use xlink:href="#DejaVuSans-73" x="557.861328"/>
     </g>
    </g>
   </g>
   <g id="matplotlib.axis_2">
    <g id="ytick_1">
     <g id="line2d_7">
      <defs>
       <path id="m0d6e62f39d" d="M 0 0 
L -3.5 0 
" style="stroke: #000000; stroke-width: 0.8"/>
      </defs>
      <g>
       <use xlink:href="#m0d6e62f39d" x="172.8" y="584.816538" style="stroke: #000000; stroke-width: 0.8"/>
      </g>
     </g>
     <g id="text_8">
      <!-- 0.1 -->
      <g transform="translate(149.896875 588.615757)scale(0.1 -0.1)">
       <defs>
        <path id="DejaVuSans-2e" d="M 684 794 
L 1344 794 
L 1344 0 
L 684 0 
L 684 794 
z
" transform="scale(0.015625)"/>
       </defs>
       <use xlink:href="#DejaVuSans-30"/>
       <use xlink:href="#DejaVuSans-2e" x="63.623047"/>
       <use xlink:href="#DejaVuSans-31" x="95.410156"/>
      </g>
     </g>
    </g>
    <g id="ytick_2">
     <g id="line2d_8">
      <g>
       <use xlink:href="#m0d6e62f39d" x="172.8" y="469.274742" style="stroke: #000000; stroke-width: 0.8"/>
      </g>
     </g>
     <g id="text_9">
      <!-- 0.2 -->
      <g transform="translate(149.896875 473.07396)scale(0.1 -0.1)">
       <use xlink:href="#DejaVuSans-30"/>
       <use xlink:href="#DejaVuSans-2e" x="63.623047"/>
       <use xlink:href="#DejaVuSans-32" x="95.410156"/>
      </g>
     </g>
    </g>
    <g id="ytick_3">
     <g id="line2d_9">
      <g>
       <use xlink:href="#m0d6e62f39d" x="172.8" y="353.732945" style="stroke: #000000; stroke-width: 0.8"/>
      </g>
     </g>
     <g id="text_10">
      <!-- 0.3 -->
      <g transform="translate(149.896875 357.532164)scale(0.1 -0.1)">
       <defs>
        <path id="DejaVuSans-33" d="M 2597 2516 
Q 3050 2419 3304 2112 
Q 3559 1806 3559 1356 
Q 3559 666 3084 287 
Q 2609 -91 1734 -91 
Q 1441 -91 1130 -33 
Q 819 25 488 141 
L 488 750 
Q 750 597 1062 519 
Q 1375 441 1716 441 
Q 2309 441 2620 675 
Q 2931 909 2931 1356 
Q 2931 1769 2642 2001 
Q 2353 2234 1838 2234 
L 1294 2234 
L 1294 2753 
L 1863 2753 
Q 2328 2753 2575 2939 
Q 2822 3125 2822 3475 
Q 2822 3834 2567 4026 
Q 2313 4219 1838 4219 
Q 1578 4219 1281 4162 
Q 984 4106 628 3988 
L 628 4550 
Q 988 4650 1302 4700 
Q 1616 4750 1894 4750 
Q 2613 4750 3031 4423 
Q 3450 4097 3450 3541 
Q 3450 3153 3228 2886 
Q 3006 2619 2597 2516 
z
" transform="scale(0.015625)"/>
       </defs>
       <use xlink:href="#DejaVuSans-30"/>
       <use xlink:href="#DejaVuSans-2e" x="63.623047"/>
       <use xlink:href="#DejaVuSans-33" x="95.410156"/>
      </g>
     </g>
    </g>
    <g id="ytick_4">
     <g id="line2d_10">
      <g>
       <use xlink:href="#m0d6e62f39d" x="172.8" y="238.191149" style="stroke: #000000; stroke-width: 0.8"/>
      </g>
     </g>
     <g id="text_11">
      <!-- 0.4 -->
      <g transform="translate(149.896875 241.990368)scale(0.1 -0.1)">
       <use xlink:href="#DejaVuSans-30"/>
       <use xlink:href="#DejaVuSans-2e" x="63.623047"/>
       <use xlink:href="#DejaVuSans-34" x="95.410156"/>
      </g>
     </g>
    </g>
    <g id="ytick_5">
     <g id="line2d_11">
      <g>
       <use xlink:href="#m0d6e62f39d" x="172.8" y="122.649353" style="stroke: #000000; stroke-width: 0.8"/>
      </g>
     </g>
     <g id="text_12">
      <!-- 0.5 -->
      <g transform="translate(149.896875 126.448571)scale(0.1 -0.1)">
       <defs>
        <path id="DejaVuSans-35" d="M 691 4666 
L 3169 4666 
L 3169 4134 
L 1269 4134 
L 1269 2991 
Q 1406 3038 1543 3061 
Q 1681 3084 1819 3084 
Q 2600 3084 3056 2656 
Q 3513 2228 3513 1497 
Q 3513 744 3044 326 
Q 2575 -91 1722 -91 
Q 1428 -91 1123 -41 
Q 819 9 494 109 
L 494 744 
Q 775 591 1075 516 
Q 1375 441 1709 441 
Q 2250 441 2565 725 
Q 2881 1009 2881 1497 
Q 2881 1984 2565 2268 
Q 2250 2553 1709 2553 
Q 1456 2553 1204 2497 
Q 953 2441 691 2322 
L 691 4666 
z
" transform="scale(0.015625)"/>
       </defs>
       <use xlink:href="#DejaVuSans-30"/>
       <use xlink:href="#DejaVuSans-2e" x="63.623047"/>
       <use xlink:href="#DejaVuSans-35" x="95.410156"/>
      </g>
     </g>
    </g>
    <g id="text_13">
     <!-- Mean Square Error (MSE) -->
     <g transform="translate(142.153437 471.052406)rotate(-90)scale(0.18 -0.18)">
      <defs>
       <path id="DejaVuSans-4d" d="M 628 4666 
L 1569 4666 
L 2759 1491 
L 3956 4666 
L 4897 4666 
L 4897 0 
L 4281 0 
L 4281 4097 
L 3078 897 
L 2444 897 
L 1241 4097 
L 1241 0 
L 628 0 
L 628 4666 
z
" transform="scale(0.015625)"/>
       <path id="DejaVuSans-20" transform="scale(0.015625)"/>
       <path id="DejaVuSans-53" d="M 3425 4513 
L 3425 3897 
Q 3066 4069 2747 4153 
Q 2428 4238 2131 4238 
Q 1616 4238 1336 4038 
Q 1056 3838 1056 3469 
Q 1056 3159 1242 3001 
Q 1428 2844 1947 2747 
L 2328 2669 
Q 3034 2534 3370 2195 
Q 3706 1856 3706 1288 
Q 3706 609 3251 259 
Q 2797 -91 1919 -91 
Q 1588 -91 1214 -16 
Q 841 59 441 206 
L 441 856 
Q 825 641 1194 531 
Q 1563 422 1919 422 
Q 2459 422 2753 634 
Q 3047 847 3047 1241 
Q 3047 1584 2836 1778 
Q 2625 1972 2144 2069 
L 1759 2144 
Q 1053 2284 737 2584 
Q 422 2884 422 3419 
Q 422 4038 858 4394 
Q 1294 4750 2059 4750 
Q 2388 4750 2728 4690 
Q 3069 4631 3425 4513 
z
" transform="scale(0.015625)"/>
       <path id="DejaVuSans-71" d="M 947 1747 
Q 947 1113 1208 752 
Q 1469 391 1925 391 
Q 2381 391 2643 752 
Q 2906 1113 2906 1747 
Q 2906 2381 2643 2742 
Q 2381 3103 1925 3103 
Q 1469 3103 1208 2742 
Q 947 2381 947 1747 
z
M 2906 525 
Q 2725 213 2448 61 
Q 2172 -91 1784 -91 
Q 1150 -91 751 415 
Q 353 922 353 1747 
Q 353 2572 751 3078 
Q 1150 3584 1784 3584 
Q 2172 3584 2448 3432 
Q 2725 3281 2906 2969 
L 2906 3500 
L 3481 3500 
L 3481 -1331 
L 2906 -1331 
L 2906 525 
z
" transform="scale(0.015625)"/>
       <path id="DejaVuSans-75" d="M 544 1381 
L 544 3500 
L 1119 3500 
L 1119 1403 
Q 1119 906 1312 657 
Q 1506 409 1894 409 
Q 2359 409 2629 706 
Q 2900 1003 2900 1516 
L 2900 3500 
L 3475 3500 
L 3475 0 
L 2900 0 
L 2900 538 
Q 2691 219 2414 64 
Q 2138 -91 1772 -91 
Q 1169 -91 856 284 
Q 544 659 544 1381 
z
M 1991 3584 
L 1991 3584 
z
" transform="scale(0.015625)"/>
       <path id="DejaVuSans-45" d="M 628 4666 
L 3578 4666 
L 3578 4134 
L 1259 4134 
L 1259 2753 
L 3481 2753 
L 3481 2222 
L 1259 2222 
L 1259 531 
L 3634 531 
L 3634 0 
L 628 0 
L 628 4666 
z
" transform="scale(0.015625)"/>
       <path id="DejaVuSans-28" d="M 1984 4856 
Q 1566 4138 1362 3434 
Q 1159 2731 1159 2009 
Q 1159 1288 1364 580 
Q 1569 -128 1984 -844 
L 1484 -844 
Q 1016 -109 783 600 
Q 550 1309 550 2009 
Q 550 2706 781 3412 
Q 1013 4119 1484 4856 
L 1984 4856 
z
" transform="scale(0.015625)"/>
       <path id="DejaVuSans-29" d="M 513 4856 
L 1013 4856 
Q 1481 4119 1714 3412 
Q 1947 2706 1947 2009 
Q 1947 1309 1714 600 
Q 1481 -109 1013 -844 
L 513 -844 
Q 928 -128 1133 580 
Q 1338 1288 1338 2009 
Q 1338 2731 1133 3434 
Q 928 4138 513 4856 
z
" transform="scale(0.015625)"/>
      </defs>
      <use xlink:href="#DejaVuSans-4d"/>
      <use xlink:href="#DejaVuSans-65" x="86.279297"/>
      <use xlink:href="#DejaVuSans-61" x="147.802734"/>
      <use xlink:href="#DejaVuSans-6e" x="209.082031"/>
      <use xlink:href="#DejaVuSans-20" x="272.460938"/>
      <use xlink:href="#DejaVuSans-53" x="304.248047"/>
      <use xlink:href="#DejaVuSans-71" x="367.724609"/>
      <use xlink:href="#DejaVuSans-75" x="431.201172"/>
      <use xlink:href="#DejaVuSans-61" x="494.580078"/>
      <use xlink:href="#DejaVuSans-72" x="555.859375"/>
      <use xlink:href="#DejaVuSans-65" x="594.722656"/>
      <use xlink:href="#DejaVuSans-20" x="656.246094"/>
      <use xlink:href="#DejaVuSans-45" x="688.033203"/>
      <use xlink:href="#DejaVuSans-72" x="751.216797"/>
      <use xlink:href="#DejaVuSans-72" x="790.580078"/>
      <use xlink:href="#DejaVuSans-6f" x="829.443359"/>
      <use xlink:href="#DejaVuSans-72" x="890.625"/>
      <use xlink:href="#DejaVuSans-20" x="931.738281"/>
      <use xlink:href="#DejaVuSans-28" x="963.525391"/>
      <use xlink:href="#DejaVuSans-4d" x="1002.539062"/>
      <use xlink:href="#DejaVuSans-53" x="1088.818359"/>
      <use xlink:href="#DejaVuSans-45" x="1152.294922"/>
      <use xlink:href="#DejaVuSans-29" x="1215.478516"/>
     </g>
    </g>
   </g>
   <g id="line2d_12">
    <path d="M 221.498182 195.665349 
L 231.336198 226.04092 
L 241.174215 226.843294 
L 251.012231 202.013379 
L 260.850248 201.855088 
L 270.688264 197.468084 
L 280.526281 204.524208 
L 290.364298 213.202943 
L 300.202314 229.021165 
L 310.040331 206.96226 
L 319.878347 242.583089 
L 329.716364 183.629745 
L 339.55438 225.697046 
L 349.392397 136.404328 
L 359.230413 186.839239 
L 369.06843 246.300853 
L 378.906446 217.100186 
L 388.744463 213.039193 
L 398.582479 169.64552 
L 408.420496 207.31887 
L 418.258512 302.282786 
L 428.096529 300.031227 
L 437.934545 272.521276 
L 447.772562 278.539078 
L 457.610579 239.996489 
L 467.448595 300.394206 
L 477.286612 266.018523 
L 487.124628 317.347759 
L 496.962645 374.059743 
L 506.800661 323.555362 
L 516.638678 316.556302 
L 526.476694 269.54544 
L 536.314711 315.546513 
L 546.152727 331.409766 
L 555.990744 224.665423 
L 565.82876 275.386896 
L 575.666777 269.241733 
L 585.504793 273.317281 
L 595.34281 307.738237 
L 605.180826 285.17525 
L 615.018843 248.871483 
L 624.85686 220.653555 
L 634.694876 176.446591 
L 644.532893 267.219879 
L 654.370909 314.005339 
L 664.208926 295.431153 
L 674.046942 247.771369 
L 683.884959 211.94207 
L 693.722975 278.330669 
L 703.560992 285.962398 
L 713.399008 232.252493 
L 723.237025 263.510493 
L 733.075041 236.987589 
L 742.913058 336.52574 
L 752.751074 308.647191 
L 762.589091 258.21228 
L 772.427107 272.480338 
L 782.265124 293.112802 
L 792.10314 291.577649 
L 801.941157 181.744804 
L 811.779174 231.924993 
L 821.61719 196.250539 
L 831.455207 177.938961 
L 841.293223 167.53401 
L 851.13124 156.312846 
L 860.969256 161.352078 
L 870.807273 275.755333 
L 880.645289 267.840763 
L 890.483306 231.686192 
L 900.321322 194.699226 
L 910.159339 304.367866 
L 919.997355 331.877817 
L 929.835372 325.611662 
L 939.673388 305.230281 
L 949.511405 353.838753 
L 959.349421 311.971311 
L 969.187438 227.478941 
L 979.025455 300.838811 
L 988.863471 268.681345 
L 998.701488 213.661442 
L 1008.539504 294.378141 
L 1018.377521 247.590382 
L 1028.215537 283.829453 
L 1038.053554 309.815273 
L 1047.89157 297.206545 
L 1057.729587 328.821156 
L 1067.567603 213.432193 
L 1077.40562 239.108147 
L 1087.243636 220.462514 
L 1097.081653 334.377729 
L 1106.919669 320.86208 
L 1116.757686 327.904157 
L 1126.595702 328.51549 
L 1136.433719 360.716241 
L 1146.271736 357.525984 
L 1156.109752 306.813195 
L 1165.947769 265.136794 
L 1175.785785 288.751105 
L 1185.623802 354.399853 
L 1195.461818 336.733206 
" clip-path="url(#p46fb5d51c2)" style="fill: none; stroke-dasharray: 2.5,4.125; stroke-dashoffset: 0; stroke: #ff0000; stroke-width: 2.5"/>
   </g>
   <g id="line2d_13"/>
   <g id="line2d_14">
    <path d="M 221.498182 109.926 
L 231.336198 141.230636 
L 241.174215 250.489715 
L 251.012231 243.612228 
L 260.850248 174.765427 
L 270.688264 153.521631 
L 280.526281 210.375531 
L 290.364298 237.274151 
L 300.202314 259.493727 
L 310.040331 287.900103 
L 319.878347 271.485244 
L 329.716364 196.200265 
L 339.55438 257.448115 
L 349.392397 282.915661 
L 359.230413 228.486249 
L 369.06843 289.793149 
L 378.906446 290.689306 
L 388.744463 261.657971 
L 398.582479 266.694515 
L 408.420496 305.343646 
L 418.258512 268.604929 
L 428.096529 246.749801 
L 437.934545 227.776667 
L 447.772562 251.205472 
L 457.610579 240.27203 
L 467.448595 220.601453 
L 477.286612 230.220317 
L 487.124628 226.517054 
L 496.962645 288.167561 
L 506.800661 260.810442 
L 516.638678 240.789311 
L 526.476694 223.846674 
L 536.314711 203.905598 
L 546.152727 223.009731 
L 555.990744 249.424379 
L 565.82876 275.482417 
L 575.666777 304.444282 
L 585.504793 306.507529 
L 595.34281 233.731202 
L 605.180826 268.413887 
L 615.018843 183.312323 
L 624.85686 282.947724 
L 634.694876 261.181608 
L 644.532893 246.935384 
L 654.370909 233.04185 
L 664.208926 226.957919 
L 674.046942 257.698205 
L 683.884959 234.064656 
L 693.722975 173.084264 
L 703.560992 196.467722 
L 713.399008 241.094977 
L 723.237025 368.710586 
L 733.075041 308.341525 
L 742.913058 381.172358 
L 752.751074 312.735476 
L 762.589091 280.449491 
L 772.427107 245.134137 
L 782.265124 231.466494 
L 792.10314 236.782901 
L 801.941157 273.954086 
L 811.779174 406.154686 
L 821.61719 309.160274 
L 831.455207 250.374127 
L 841.293223 267.567847 
L 851.13124 281.814072 
L 860.969256 286.827332 
L 870.807273 189.131735 
L 880.645289 218.279184 
L 890.483306 273.77774 
L 900.321322 301.655079 
L 910.159339 320.220823 
L 919.997355 303.548125 
L 929.835372 246.214885 
L 939.673388 296.369602 
L 949.511405 274.52721 
L 959.349421 293.211052 
L 969.187438 309.105691 
L 979.025455 279.557965 
L 988.863471 346.626208 
L 998.701488 206.429659 
L 1008.539504 237.690968 
L 1018.377521 219.815912 
L 1028.215537 200.594215 
L 1038.053554 194.951148 
L 1047.89157 318.922276 
L 1057.729587 269.532844 
L 1067.567603 243.49664 
L 1077.40562 237.274151 
L 1087.243636 199.524384 
L 1097.081653 139.766656 
L 1106.919669 147.580246 
L 1116.757686 184.710493 
L 1126.595702 188.426352 
L 1136.433719 204.360459 
L 1146.271736 244.151638 
L 1156.109752 173.084264 
L 1165.947769 269.785911 
L 1175.785785 197.468084 
L 1185.623802 188.558611 
L 1195.461818 206.429659 
" clip-path="url(#p46fb5d51c2)" style="fill: none; stroke-dasharray: 2.5,4.125; stroke-dashoffset: 0; stroke: #0000ff; stroke-width: 2.5"/>
   </g>
   <g id="line2d_15"/>
   <g id="line2d_16">
    <path d="M 221.498182 173.886637 
L 231.336198 182.857536 
L 241.174215 179.159378 
L 251.012231 181.222624 
L 260.850248 225.954952 
L 270.688264 288.568748 
L 280.526281 261.008226 
L 290.364298 249.023192 
L 300.202314 300.174508 
L 310.040331 252.011625 
L 319.878347 223.846674 
L 329.716364 263.310355 
L 339.55438 251.684125 
L 349.392397 314.727764 
L 359.230413 328.973989 
L 369.06843 222.755009 
L 378.906446 296.726212 
L 388.744463 233.978688 
L 398.582479 216.784968 
L 408.420496 272.470706 
L 418.258512 186.030123 
L 428.096529 236.509985 
L 437.934545 214.214338 
L 447.772562 270.897425 
L 457.610579 256.269117 
L 467.448595 280.373075 
L 477.286612 345.327127 
L 487.124628 220.873987 
L 496.962645 219.261682 
L 506.800661 152.804492 
L 516.638678 200.403174 
L 526.476694 236.701027 
L 536.314711 265.439101 
L 546.152727 259.587778 
L 555.990744 221.083398 
L 565.82876 244.915804 
L 575.666777 176.850507 
L 585.504793 217.253019 
L 595.34281 247.876944 
L 605.180826 305.743363 
L 615.018843 264.784102 
L 624.85686 259.141035 
L 634.694876 225.811671 
L 644.532893 280.667824 
L 654.370909 199.065885 
L 664.208926 267.229431 
L 674.046942 294.433716 
L 683.884959 275.788083 
L 693.722975 276.246582 
L 703.560992 232.077826 
L 713.399008 222.170648 
L 723.237025 237.783594 
L 733.075041 237.417432 
L 742.913058 214.654857 
L 752.751074 209.191075 
L 762.589091 289.596999 
L 772.427107 252.175374 
L 782.265124 232.536326 
L 792.10314 204.892645 
L 801.941157 216.641687 
L 811.779174 222.500288 
L 821.61719 174.163085 
L 831.455207 227.467362 
L 841.293223 225.582421 
L 851.13124 236.188231 
L 860.969256 219.054841 
L 870.807273 222.602176 
L 880.645289 252.512506 
L 890.483306 232.958864 
L 900.321322 238.56368 
L 910.159339 269.216261 
L 919.997355 219.545515 
L 929.835372 199.304686 
L 939.673388 169.712946 
L 949.511405 191.137669 
L 959.349421 186.202435 
L 969.187438 132.181309 
L 979.025455 259.475164 
L 988.863471 281.086296 
L 998.701488 266.132629 
L 1008.539504 196.725628 
L 1018.377521 205.718618 
L 1028.215537 271.257032 
L 1038.053554 213.270369 
L 1047.89157 249.453035 
L 1057.729587 285.846409 
L 1067.567603 243.721795 
L 1077.40562 277.055698 
L 1087.243636 240.967616 
L 1097.081653 211.112726 
L 1106.919669 226.703197 
L 1116.757686 243.207669 
L 1126.595702 236.414465 
L 1136.433719 327.111336 
L 1146.271736 280.984407 
L 1156.109752 206.096205 
L 1165.947769 275.023917 
L 1175.785785 315.524679 
L 1185.623802 286.827332 
L 1195.461818 289.825212 
" clip-path="url(#p46fb5d51c2)" style="fill: none; stroke-dasharray: 2.5,4.125; stroke-dashoffset: 0; stroke: #008000; stroke-width: 2.5"/>
   </g>
   <g id="line2d_17"/>
   <g id="line2d_18">
    <path d="M 221.498182 276.246582 
L 231.336198 278.539078 
L 241.174215 278.539078 
L 251.012231 278.539078 
L 260.850248 278.539078 
L 270.688264 278.539078 
L 280.526281 278.539078 
L 290.364298 278.539078 
L 300.202314 278.539078 
L 310.040331 278.539078 
L 319.878347 278.539078 
L 329.716364 278.539078 
L 339.55438 455.061267 
L 349.392397 455.061267 
L 359.230413 455.061267 
L 369.06843 553.638593 
L 378.906446 553.638593 
L 388.744463 553.638593 
L 398.582479 553.638593 
L 408.420496 553.638593 
L 418.258512 581.148544 
L 428.096529 581.148544 
L 437.934545 581.148544 
L 447.772562 581.148544 
L 457.610579 581.148544 
L 467.448595 583.44104 
L 477.286612 583.44104 
L 487.124628 588.026032 
L 496.962645 588.026032 
L 506.800661 588.026032 
L 516.638678 588.026032 
L 526.476694 588.026032 
L 536.314711 588.026032 
L 546.152727 588.026032 
L 555.990744 588.026032 
L 565.82876 588.026032 
L 575.666777 588.026032 
L 585.504793 588.026032 
L 595.34281 588.026032 
L 605.180826 588.026032 
L 615.018843 588.026032 
L 624.85686 588.026032 
L 634.694876 588.026032 
L 644.532893 588.026032 
L 654.370909 590.318528 
L 664.208926 590.318528 
L 674.046942 590.318528 
L 683.884959 594.90352 
L 693.722975 594.90352 
L 703.560992 594.90352 
L 713.399008 594.90352 
L 723.237025 594.90352 
L 733.075041 594.90352 
L 742.913058 594.90352 
L 752.751074 594.90352 
L 762.589091 594.90352 
L 772.427107 594.90352 
L 782.265124 594.90352 
L 792.10314 594.90352 
L 801.941157 594.90352 
L 811.779174 594.90352 
L 821.61719 594.90352 
L 831.455207 594.90352 
L 841.293223 594.90352 
L 851.13124 594.90352 
L 860.969256 594.90352 
L 870.807273 594.90352 
L 880.645289 594.90352 
L 890.483306 594.90352 
L 900.321322 594.90352 
L 910.159339 594.90352 
L 919.997355 594.90352 
L 929.835372 594.90352 
L 939.673388 594.90352 
L 949.511405 594.90352 
L 959.349421 594.90352 
L 969.187438 594.90352 
L 979.025455 594.90352 
L 988.863471 594.90352 
L 998.701488 594.90352 
L 1008.539504 594.90352 
L 1018.377521 594.90352 
L 1028.215537 594.90352 
L 1038.053554 594.90352 
L 1047.89157 594.90352 
L 1057.729587 594.90352 
L 1067.567603 594.90352 
L 1077.40562 594.90352 
L 1087.243636 594.90352 
L 1097.081653 594.90352 
L 1106.919669 594.90352 
L 1116.757686 594.90352 
L 1126.595702 599.488512 
L 1136.433719 599.488512 
L 1146.271736 604.073504 
L 1156.109752 604.073504 
L 1165.947769 604.073504 
L 1175.785785 604.073504 
L 1185.623802 606.366 
L 1195.461818 606.366 
" clip-path="url(#p46fb5d51c2)" style="fill: none; stroke: #ff0000; stroke-width: 2.5; stroke-linecap: square"/>
   </g>
   <g id="line2d_19"/>
   <g id="line2d_20">
    <path d="M 221.498182 546.761105 
L 231.336198 585.733536 
L 241.174215 585.733536 
L 251.012231 585.733536 
L 260.850248 585.733536 
L 270.688264 585.733536 
L 280.526281 585.733536 
L 290.364298 585.733536 
L 300.202314 585.733536 
L 310.040331 585.733536 
L 319.878347 585.733536 
L 329.716364 585.733536 
L 339.55438 585.733536 
L 349.392397 585.733536 
L 359.230413 585.733536 
L 369.06843 585.733536 
L 378.906446 585.733536 
L 388.744463 585.733536 
L 398.582479 585.733536 
L 408.420496 585.733536 
L 418.258512 585.733536 
L 428.096529 585.733536 
L 437.934545 585.733536 
L 447.772562 585.733536 
L 457.610579 585.733536 
L 467.448595 585.733536 
L 477.286612 585.733536 
L 487.124628 585.733536 
L 496.962645 585.733536 
L 506.800661 585.733536 
L 516.638678 585.733536 
L 526.476694 585.733536 
L 536.314711 585.733536 
L 546.152727 585.733536 
L 555.990744 585.733536 
L 565.82876 585.733536 
L 575.666777 585.733536 
L 585.504793 585.733536 
L 595.34281 585.733536 
L 605.180826 585.733536 
L 615.018843 585.733536 
L 624.85686 585.733536 
L 634.694876 585.733536 
L 644.532893 585.733536 
L 654.370909 585.733536 
L 664.208926 585.733536 
L 674.046942 588.026032 
L 683.884959 588.026032 
L 693.722975 588.026032 
L 703.560992 588.026032 
L 713.399008 588.026032 
L 723.237025 588.026032 
L 733.075041 590.318528 
L 742.913058 590.318528 
L 752.751074 592.611024 
L 762.589091 592.611024 
L 772.427107 592.611024 
L 782.265124 592.611024 
L 792.10314 592.611024 
L 801.941157 592.611024 
L 811.779174 592.611024 
L 821.61719 592.611024 
L 831.455207 592.611024 
L 841.293223 592.611024 
L 851.13124 592.611024 
L 860.969256 592.611024 
L 870.807273 592.611024 
L 880.645289 592.611024 
L 890.483306 592.611024 
L 900.321322 592.611024 
L 910.159339 592.611024 
L 919.997355 592.611024 
L 929.835372 592.611024 
L 939.673388 592.611024 
L 949.511405 592.611024 
L 959.349421 592.611024 
L 969.187438 592.611024 
L 979.025455 592.611024 
L 988.863471 592.611024 
L 998.701488 592.611024 
L 1008.539504 592.611024 
L 1018.377521 592.611024 
L 1028.215537 592.611024 
L 1038.053554 592.611024 
L 1047.89157 592.611024 
L 1057.729587 592.611024 
L 1067.567603 592.611024 
L 1077.40562 592.611024 
L 1087.243636 592.611024 
L 1097.081653 592.611024 
L 1106.919669 592.611024 
L 1116.757686 592.611024 
L 1126.595702 592.611024 
L 1136.433719 592.611024 
L 1146.271736 592.611024 
L 1156.109752 592.611024 
L 1165.947769 594.90352 
L 1175.785785 594.90352 
L 1185.623802 594.90352 
L 1195.461818 594.90352 
" clip-path="url(#p46fb5d51c2)" style="fill: none; stroke: #0000ff; stroke-width: 2.5; stroke-linecap: square"/>
   </g>
   <g id="line2d_21"/>
   <g id="line2d_22">
    <path d="M 221.498182 292.294054 
L 231.336198 292.294054 
L 241.174215 553.638593 
L 251.012231 565.101073 
L 260.850248 565.101073 
L 270.688264 567.393569 
L 280.526281 567.393569 
L 290.364298 567.393569 
L 300.202314 583.44104 
L 310.040331 583.44104 
L 319.878347 583.44104 
L 329.716364 583.44104 
L 339.55438 588.026032 
L 349.392397 588.026032 
L 359.230413 588.026032 
L 369.06843 588.026032 
L 378.906446 588.026032 
L 388.744463 588.026032 
L 398.582479 588.026032 
L 408.420496 588.026032 
L 418.258512 588.026032 
L 428.096529 588.026032 
L 437.934545 588.026032 
L 447.772562 588.026032 
L 457.610579 588.026032 
L 467.448595 588.026032 
L 477.286612 588.026032 
L 487.124628 588.026032 
L 496.962645 588.026032 
L 506.800661 588.026032 
L 516.638678 588.026032 
L 526.476694 588.026032 
L 536.314711 588.026032 
L 546.152727 588.026032 
L 555.990744 588.026032 
L 565.82876 588.026032 
L 575.666777 588.026032 
L 585.504793 588.026032 
L 595.34281 588.026032 
L 605.180826 588.026032 
L 615.018843 588.026032 
L 624.85686 588.026032 
L 634.694876 588.026032 
L 644.532893 588.026032 
L 654.370909 588.026032 
L 664.208926 588.026032 
L 674.046942 590.318528 
L 683.884959 590.318528 
L 693.722975 590.318528 
L 703.560992 592.611024 
L 713.399008 592.611024 
L 723.237025 592.611024 
L 733.075041 594.90352 
L 742.913058 594.90352 
L 752.751074 594.90352 
L 762.589091 594.90352 
L 772.427107 594.90352 
L 782.265124 599.488512 
L 792.10314 599.488512 
L 801.941157 599.488512 
L 811.779174 599.488512 
L 821.61719 599.488512 
L 831.455207 599.488512 
L 841.293223 599.488512 
L 851.13124 599.488512 
L 860.969256 599.488512 
L 870.807273 599.488512 
L 880.645289 599.488512 
L 890.483306 599.488512 
L 900.321322 599.488512 
L 910.159339 599.488512 
L 919.997355 599.488512 
L 929.835372 599.488512 
L 939.673388 599.488512 
L 949.511405 599.488512 
L 959.349421 599.488512 
L 969.187438 599.488512 
L 979.025455 599.488512 
L 988.863471 604.073504 
L 998.701488 604.073504 
L 1008.539504 604.073504 
L 1018.377521 604.073504 
L 1028.215537 604.073504 
L 1038.053554 604.073504 
L 1047.89157 604.073504 
L 1057.729587 604.073504 
L 1067.567603 604.073504 
L 1077.40562 604.073504 
L 1087.243636 604.073504 
L 1097.081653 604.073504 
L 1106.919669 604.073504 
L 1116.757686 604.073504 
L 1126.595702 604.073504 
L 1136.433719 604.073504 
L 1146.271736 604.073504 
L 1156.109752 604.073504 
L 1165.947769 604.073504 
L 1175.785785 604.073504 
L 1185.623802 604.073504 
L 1195.461818 604.073504 
" clip-path="url(#p46fb5d51c2)" style="fill: none; stroke: #008000; stroke-width: 2.5; stroke-linecap: square"/>
   </g>
   <g id="line2d_23"/>
   <g id="patch_3">
    <path d="M 172.8 631.188 
L 172.8 85.104 
" style="fill: none; stroke: #000000; stroke-width: 0.8; stroke-linejoin: miter; stroke-linecap: square"/>
   </g>
   <g id="patch_4">
    <path d="M 1244.16 631.188 
L 1244.16 85.104 
" style="fill: none; stroke: #000000; stroke-width: 0.8; stroke-linejoin: miter; stroke-linecap: square"/>
   </g>
   <g id="patch_5">
    <path d="M 172.8 631.188 
L 1244.16 631.188 
" style="fill: none; stroke: #000000; stroke-width: 0.8; stroke-linejoin: miter; stroke-linecap: square"/>
   </g>
   <g id="patch_6">
    <path d="M 172.8 85.104 
L 1244.16 85.104 
" style="fill: none; stroke: #000000; stroke-width: 0.8; stroke-linejoin: miter; stroke-linecap: square"/>
   </g>
   <g id="text_14">
    <!-- 30-4-1, 30-8-1, 30-8-4-1 Models -->
    <g transform="translate(495.25875 52.22925)scale(0.24 -0.24)">
     <defs>
      <path id="DejaVuSans-Bold-33" d="M 2981 2516 
Q 3453 2394 3698 2092 
Q 3944 1791 3944 1325 
Q 3944 631 3412 270 
Q 2881 -91 1863 -91 
Q 1503 -91 1142 -33 
Q 781 25 428 141 
L 428 1069 
Q 766 900 1098 814 
Q 1431 728 1753 728 
Q 2231 728 2486 893 
Q 2741 1059 2741 1369 
Q 2741 1688 2480 1852 
Q 2219 2016 1709 2016 
L 1228 2016 
L 1228 2791 
L 1734 2791 
Q 2188 2791 2409 2933 
Q 2631 3075 2631 3366 
Q 2631 3634 2415 3781 
Q 2200 3928 1806 3928 
Q 1516 3928 1219 3862 
Q 922 3797 628 3669 
L 628 4550 
Q 984 4650 1334 4700 
Q 1684 4750 2022 4750 
Q 2931 4750 3382 4451 
Q 3834 4153 3834 3553 
Q 3834 3144 3618 2883 
Q 3403 2622 2981 2516 
z
" transform="scale(0.015625)"/>
      <path id="DejaVuSans-Bold-30" d="M 2944 2338 
Q 2944 3213 2780 3570 
Q 2616 3928 2228 3928 
Q 1841 3928 1675 3570 
Q 1509 3213 1509 2338 
Q 1509 1453 1675 1090 
Q 1841 728 2228 728 
Q 2613 728 2778 1090 
Q 2944 1453 2944 2338 
z
M 4147 2328 
Q 4147 1169 3647 539 
Q 3147 -91 2228 -91 
Q 1306 -91 806 539 
Q 306 1169 306 2328 
Q 306 3491 806 4120 
Q 1306 4750 2228 4750 
Q 3147 4750 3647 4120 
Q 4147 3491 4147 2328 
z
" transform="scale(0.015625)"/>
      <path id="DejaVuSans-Bold-2d" d="M 347 2297 
L 2309 2297 
L 2309 1388 
L 347 1388 
L 347 2297 
z
" transform="scale(0.015625)"/>
      <path id="DejaVuSans-Bold-34" d="M 2356 3675 
L 1038 1722 
L 2356 1722 
L 2356 3675 
z
M 2156 4666 
L 3494 4666 
L 3494 1722 
L 4159 1722 
L 4159 850 
L 3494 850 
L 3494 0 
L 2356 0 
L 2356 850 
L 288 850 
L 288 1881 
L 2156 4666 
z
" transform="scale(0.015625)"/>
      <path id="DejaVuSans-Bold-31" d="M 750 831 
L 1813 831 
L 1813 3847 
L 722 3622 
L 722 4441 
L 1806 4666 
L 2950 4666 
L 2950 831 
L 4013 831 
L 4013 0 
L 750 0 
L 750 831 
z
" transform="scale(0.015625)"/>
      <path id="DejaVuSans-Bold-2c" d="M 653 1209 
L 1778 1209 
L 1778 256 
L 1006 -909 
L 341 -909 
L 653 256 
L 653 1209 
z
" transform="scale(0.015625)"/>
      <path id="DejaVuSans-Bold-20" transform="scale(0.015625)"/>
      <path id="DejaVuSans-Bold-38" d="M 2228 2088 
Q 1891 2088 1709 1903 
Q 1528 1719 1528 1375 
Q 1528 1031 1709 848 
Q 1891 666 2228 666 
Q 2563 666 2741 848 
Q 2919 1031 2919 1375 
Q 2919 1722 2741 1905 
Q 2563 2088 2228 2088 
z
M 1350 2484 
Q 925 2613 709 2878 
Q 494 3144 494 3541 
Q 494 4131 934 4440 
Q 1375 4750 2228 4750 
Q 3075 4750 3515 4442 
Q 3956 4134 3956 3541 
Q 3956 3144 3739 2878 
Q 3522 2613 3097 2484 
Q 3572 2353 3814 2058 
Q 4056 1763 4056 1313 
Q 4056 619 3595 264 
Q 3134 -91 2228 -91 
Q 1319 -91 855 264 
Q 391 619 391 1313 
Q 391 1763 633 2058 
Q 875 2353 1350 2484 
z
M 1631 3419 
Q 1631 3141 1786 2991 
Q 1941 2841 2228 2841 
Q 2509 2841 2662 2991 
Q 2816 3141 2816 3419 
Q 2816 3697 2662 3845 
Q 2509 3994 2228 3994 
Q 1941 3994 1786 3844 
Q 1631 3694 1631 3419 
z
" transform="scale(0.015625)"/>
      <path id="DejaVuSans-Bold-4d" d="M 588 4666 
L 2119 4666 
L 3181 2169 
L 4250 4666 
L 5778 4666 
L 5778 0 
L 4641 0 
L 4641 3413 
L 3566 897 
L 2803 897 
L 1728 3413 
L 1728 0 
L 588 0 
L 588 4666 
z
" transform="scale(0.015625)"/>
      <path id="DejaVuSans-Bold-6f" d="M 2203 2784 
Q 1831 2784 1636 2517 
Q 1441 2250 1441 1747 
Q 1441 1244 1636 976 
Q 1831 709 2203 709 
Q 2569 709 2762 976 
Q 2956 1244 2956 1747 
Q 2956 2250 2762 2517 
Q 2569 2784 2203 2784 
z
M 2203 3584 
Q 3106 3584 3614 3096 
Q 4122 2609 4122 1747 
Q 4122 884 3614 396 
Q 3106 -91 2203 -91 
Q 1297 -91 786 396 
Q 275 884 275 1747 
Q 275 2609 786 3096 
Q 1297 3584 2203 3584 
z
" transform="scale(0.015625)"/>
      <path id="DejaVuSans-Bold-64" d="M 2919 2988 
L 2919 4863 
L 4044 4863 
L 4044 0 
L 2919 0 
L 2919 506 
Q 2688 197 2409 53 
Q 2131 -91 1766 -91 
Q 1119 -91 703 423 
Q 288 938 288 1747 
Q 288 2556 703 3070 
Q 1119 3584 1766 3584 
Q 2128 3584 2408 3439 
Q 2688 3294 2919 2988 
z
M 2181 722 
Q 2541 722 2730 984 
Q 2919 1247 2919 1747 
Q 2919 2247 2730 2509 
Q 2541 2772 2181 2772 
Q 1825 2772 1636 2509 
Q 1447 2247 1447 1747 
Q 1447 1247 1636 984 
Q 1825 722 2181 722 
z
" transform="scale(0.015625)"/>
      <path id="DejaVuSans-Bold-65" d="M 4031 1759 
L 4031 1441 
L 1416 1441 
Q 1456 1047 1700 850 
Q 1944 653 2381 653 
Q 2734 653 3104 758 
Q 3475 863 3866 1075 
L 3866 213 
Q 3469 63 3072 -14 
Q 2675 -91 2278 -91 
Q 1328 -91 801 392 
Q 275 875 275 1747 
Q 275 2603 792 3093 
Q 1309 3584 2216 3584 
Q 3041 3584 3536 3087 
Q 4031 2591 4031 1759 
z
M 2881 2131 
Q 2881 2450 2695 2645 
Q 2509 2841 2209 2841 
Q 1884 2841 1681 2658 
Q 1478 2475 1428 2131 
L 2881 2131 
z
" transform="scale(0.015625)"/>
      <path id="DejaVuSans-Bold-6c" d="M 538 4863 
L 1656 4863 
L 1656 0 
L 538 0 
L 538 4863 
z
" transform="scale(0.015625)"/>
      <path id="DejaVuSans-Bold-73" d="M 3272 3391 
L 3272 2541 
Q 2913 2691 2578 2766 
Q 2244 2841 1947 2841 
Q 1628 2841 1473 2761 
Q 1319 2681 1319 2516 
Q 1319 2381 1436 2309 
Q 1553 2238 1856 2203 
L 2053 2175 
Q 2913 2066 3209 1816 
Q 3506 1566 3506 1031 
Q 3506 472 3093 190 
Q 2681 -91 1863 -91 
Q 1516 -91 1145 -36 
Q 775 19 384 128 
L 384 978 
Q 719 816 1070 734 
Q 1422 653 1784 653 
Q 2113 653 2278 743 
Q 2444 834 2444 1013 
Q 2444 1163 2330 1236 
Q 2216 1309 1875 1350 
L 1678 1375 
Q 931 1469 631 1722 
Q 331 1975 331 2491 
Q 331 3047 712 3315 
Q 1094 3584 1881 3584 
Q 2191 3584 2531 3537 
Q 2872 3491 3272 3391 
z
" transform="scale(0.015625)"/>
     </defs>
     <use xlink:href="#DejaVuSans-Bold-33"/>
     <use xlink:href="#DejaVuSans-Bold-30" x="69.580078"/>
     <use xlink:href="#DejaVuSans-Bold-2d" x="139.160156"/>
     <use xlink:href="#DejaVuSans-Bold-34" x="180.664062"/>
     <use xlink:href="#DejaVuSans-Bold-2d" x="250.244141"/>
     <use xlink:href="#DejaVuSans-Bold-31" x="291.748047"/>
     <use xlink:href="#DejaVuSans-Bold-2c" x="361.328125"/>
     <use xlink:href="#DejaVuSans-Bold-20" x="399.316406"/>
     <use xlink:href="#DejaVuSans-Bold-33" x="434.130859"/>
     <use xlink:href="#DejaVuSans-Bold-30" x="503.710938"/>
     <use xlink:href="#DejaVuSans-Bold-2d" x="573.291016"/>
     <use xlink:href="#DejaVuSans-Bold-38" x="614.794922"/>
     <use xlink:href="#DejaVuSans-Bold-2d" x="684.375"/>
     <use xlink:href="#DejaVuSans-Bold-31" x="725.878906"/>
     <use xlink:href="#DejaVuSans-Bold-2c" x="795.458984"/>
     <use xlink:href="#DejaVuSans-Bold-20" x="833.447266"/>
     <use xlink:href="#DejaVuSans-Bold-33" x="868.261719"/>
     <use xlink:href="#DejaVuSans-Bold-30" x="937.841797"/>
     <use xlink:href="#DejaVuSans-Bold-2d" x="1007.421875"/>
     <use xlink:href="#DejaVuSans-Bold-38" x="1048.925781"/>
     <use xlink:href="#DejaVuSans-Bold-2d" x="1118.505859"/>
     <use xlink:href="#DejaVuSans-Bold-34" x="1160.009766"/>
     <use xlink:href="#DejaVuSans-Bold-2d" x="1229.589844"/>
     <use xlink:href="#DejaVuSans-Bold-31" x="1271.09375"/>
     <use xlink:href="#DejaVuSans-Bold-20" x="1340.673828"/>
     <use xlink:href="#DejaVuSans-Bold-4d" x="1375.488281"/>
     <use xlink:href="#DejaVuSans-Bold-6f" x="1475"/>
     <use xlink:href="#DejaVuSans-Bold-64" x="1543.701172"/>
     <use xlink:href="#DejaVuSans-Bold-65" x="1615.283203"/>
     <use xlink:href="#DejaVuSans-Bold-6c" x="1683.105469"/>
     <use xlink:href="#DejaVuSans-Bold-73" x="1717.382812"/>
    </g>
    <!-- MSE Converge -->
    <g transform="translate(611.319375 79.104)scale(0.24 -0.24)">
     <defs>
      <path id="DejaVuSans-Bold-53" d="M 3834 4519 
L 3834 3531 
Q 3450 3703 3084 3790 
Q 2719 3878 2394 3878 
Q 1963 3878 1756 3759 
Q 1550 3641 1550 3391 
Q 1550 3203 1689 3098 
Q 1828 2994 2194 2919 
L 2706 2816 
Q 3484 2659 3812 2340 
Q 4141 2022 4141 1434 
Q 4141 663 3683 286 
Q 3225 -91 2284 -91 
Q 1841 -91 1394 -6 
Q 947 78 500 244 
L 500 1259 
Q 947 1022 1364 901 
Q 1781 781 2169 781 
Q 2563 781 2772 912 
Q 2981 1044 2981 1288 
Q 2981 1506 2839 1625 
Q 2697 1744 2272 1838 
L 1806 1941 
Q 1106 2091 782 2419 
Q 459 2747 459 3303 
Q 459 4000 909 4375 
Q 1359 4750 2203 4750 
Q 2588 4750 2994 4692 
Q 3400 4634 3834 4519 
z
" transform="scale(0.015625)"/>
      <path id="DejaVuSans-Bold-45" d="M 588 4666 
L 3834 4666 
L 3834 3756 
L 1791 3756 
L 1791 2888 
L 3713 2888 
L 3713 1978 
L 1791 1978 
L 1791 909 
L 3903 909 
L 3903 0 
L 588 0 
L 588 4666 
z
" transform="scale(0.015625)"/>
      <path id="DejaVuSans-Bold-43" d="M 4288 256 
Q 3956 84 3597 -3 
Q 3238 -91 2847 -91 
Q 1681 -91 1000 561 
Q 319 1213 319 2328 
Q 319 3447 1000 4098 
Q 1681 4750 2847 4750 
Q 3238 4750 3597 4662 
Q 3956 4575 4288 4403 
L 4288 3438 
Q 3953 3666 3628 3772 
Q 3303 3878 2944 3878 
Q 2300 3878 1931 3465 
Q 1563 3053 1563 2328 
Q 1563 1606 1931 1193 
Q 2300 781 2944 781 
Q 3303 781 3628 887 
Q 3953 994 4288 1222 
L 4288 256 
z
" transform="scale(0.015625)"/>
      <path id="DejaVuSans-Bold-6e" d="M 4056 2131 
L 4056 0 
L 2931 0 
L 2931 347 
L 2931 1631 
Q 2931 2084 2911 2256 
Q 2891 2428 2841 2509 
Q 2775 2619 2662 2680 
Q 2550 2741 2406 2741 
Q 2056 2741 1856 2470 
Q 1656 2200 1656 1722 
L 1656 0 
L 538 0 
L 538 3500 
L 1656 3500 
L 1656 2988 
Q 1909 3294 2193 3439 
Q 2478 3584 2822 3584 
Q 3428 3584 3742 3212 
Q 4056 2841 4056 2131 
z
" transform="scale(0.015625)"/>
      <path id="DejaVuSans-Bold-76" d="M 97 3500 
L 1216 3500 
L 2088 1081 
L 2956 3500 
L 4078 3500 
L 2700 0 
L 1472 0 
L 97 3500 
z
" transform="scale(0.015625)"/>
      <path id="DejaVuSans-Bold-72" d="M 3138 2547 
Q 2991 2616 2845 2648 
Q 2700 2681 2553 2681 
Q 2122 2681 1889 2404 
Q 1656 2128 1656 1613 
L 1656 0 
L 538 0 
L 538 3500 
L 1656 3500 
L 1656 2925 
Q 1872 3269 2151 3426 
Q 2431 3584 2822 3584 
Q 2878 3584 2943 3579 
Q 3009 3575 3134 3559 
L 3138 2547 
z
" transform="scale(0.015625)"/>
      <path id="DejaVuSans-Bold-67" d="M 2919 594 
Q 2688 288 2409 144 
Q 2131 0 1766 0 
Q 1125 0 706 504 
Q 288 1009 288 1791 
Q 288 2575 706 3076 
Q 1125 3578 1766 3578 
Q 2131 3578 2409 3434 
Q 2688 3291 2919 2981 
L 2919 3500 
L 4044 3500 
L 4044 353 
Q 4044 -491 3511 -936 
Q 2978 -1381 1966 -1381 
Q 1638 -1381 1331 -1331 
Q 1025 -1281 716 -1178 
L 716 -306 
Q 1009 -475 1290 -558 
Q 1572 -641 1856 -641 
Q 2406 -641 2662 -400 
Q 2919 -159 2919 353 
L 2919 594 
z
M 2181 2772 
Q 1834 2772 1640 2515 
Q 1447 2259 1447 1791 
Q 1447 1309 1634 1061 
Q 1822 813 2181 813 
Q 2531 813 2725 1069 
Q 2919 1325 2919 1791 
Q 2919 2259 2725 2515 
Q 2531 2772 2181 2772 
z
" transform="scale(0.015625)"/>
     </defs>
     <use xlink:href="#DejaVuSans-Bold-4d"/>
     <use xlink:href="#DejaVuSans-Bold-53" x="99.511719"/>
     <use xlink:href="#DejaVuSans-Bold-45" x="171.533203"/>
     <use xlink:href="#DejaVuSans-Bold-20" x="239.84375"/>
     <use xlink:href="#DejaVuSans-Bold-43" x="274.658203"/>
     <use xlink:href="#DejaVuSans-Bold-6f" x="348.046875"/>
     <use xlink:href="#DejaVuSans-Bold-6e" x="416.748047"/>
     <use xlink:href="#DejaVuSans-Bold-76" x="487.939453"/>
     <use xlink:href="#DejaVuSans-Bold-65" x="553.125"/>
     <use xlink:href="#DejaVuSans-Bold-72" x="620.947266"/>
     <use xlink:href="#DejaVuSans-Bold-67" x="670.263672"/>
     <use xlink:href="#DejaVuSans-Bold-65" x="741.845703"/>
    </g>
   </g>
   <g id="legend_1">
    <g id="patch_7">
     <path d="M 1009.70375 544.2754 
L 1237.16 544.2754 
Q 1239.16 544.2754 1239.16 542.2754 
L 1239.16 455.20665 
Q 1239.16 453.20665 1237.16 453.20665 
L 1009.70375 453.20665 
Q 1007.70375 453.20665 1007.70375 455.20665 
L 1007.70375 542.2754 
Q 1007.70375 544.2754 1009.70375 544.2754 
z
" style="fill: #ffffff; opacity: 0.8; stroke: #cccccc; stroke-linejoin: miter"/>
    </g>
    <g id="line2d_24">
     <path d="M 1011.70375 461.305087 
L 1021.70375 461.305087 
L 1031.70375 461.305087 
" style="fill: none; stroke: #ff0000; stroke-width: 1.5; stroke-linecap: square"/>
    </g>
    <g id="text_15">
     <!-- 30-4-1 Average MSE of All Population -->
     <g transform="translate(1039.70375 464.805087)scale(0.1 -0.1)">
      <defs>
       <path id="DejaVuSans-2d" d="M 313 2009 
L 1997 2009 
L 1997 1497 
L 313 1497 
L 313 2009 
z
" transform="scale(0.015625)"/>
       <path id="DejaVuSans-41" d="M 2188 4044 
L 1331 1722 
L 3047 1722 
L 2188 4044 
z
M 1831 4666 
L 2547 4666 
L 4325 0 
L 3669 0 
L 3244 1197 
L 1141 1197 
L 716 0 
L 50 0 
L 1831 4666 
z
" transform="scale(0.015625)"/>
       <path id="DejaVuSans-76" d="M 191 3500 
L 800 3500 
L 1894 563 
L 2988 3500 
L 3597 3500 
L 2284 0 
L 1503 0 
L 191 3500 
z
" transform="scale(0.015625)"/>
       <path id="DejaVuSans-67" d="M 2906 1791 
Q 2906 2416 2648 2759 
Q 2391 3103 1925 3103 
Q 1463 3103 1205 2759 
Q 947 2416 947 1791 
Q 947 1169 1205 825 
Q 1463 481 1925 481 
Q 2391 481 2648 825 
Q 2906 1169 2906 1791 
z
M 3481 434 
Q 3481 -459 3084 -895 
Q 2688 -1331 1869 -1331 
Q 1566 -1331 1297 -1286 
Q 1028 -1241 775 -1147 
L 775 -588 
Q 1028 -725 1275 -790 
Q 1522 -856 1778 -856 
Q 2344 -856 2625 -561 
Q 2906 -266 2906 331 
L 2906 616 
Q 2728 306 2450 153 
Q 2172 0 1784 0 
Q 1141 0 747 490 
Q 353 981 353 1791 
Q 353 2603 747 3093 
Q 1141 3584 1784 3584 
Q 2172 3584 2450 3431 
Q 2728 3278 2906 2969 
L 2906 3500 
L 3481 3500 
L 3481 434 
z
" transform="scale(0.015625)"/>
       <path id="DejaVuSans-66" d="M 2375 4863 
L 2375 4384 
L 1825 4384 
Q 1516 4384 1395 4259 
Q 1275 4134 1275 3809 
L 1275 3500 
L 2222 3500 
L 2222 3053 
L 1275 3053 
L 1275 0 
L 697 0 
L 697 3053 
L 147 3053 
L 147 3500 
L 697 3500 
L 697 3744 
Q 697 4328 969 4595 
Q 1241 4863 1831 4863 
L 2375 4863 
z
" transform="scale(0.015625)"/>
       <path id="DejaVuSans-6c" d="M 603 4863 
L 1178 4863 
L 1178 0 
L 603 0 
L 603 4863 
z
" transform="scale(0.015625)"/>
       <path id="DejaVuSans-50" d="M 1259 4147 
L 1259 2394 
L 2053 2394 
Q 2494 2394 2734 2622 
Q 2975 2850 2975 3272 
Q 2975 3691 2734 3919 
Q 2494 4147 2053 4147 
L 1259 4147 
z
M 628 4666 
L 2053 4666 
Q 2838 4666 3239 4311 
Q 3641 3956 3641 3272 
Q 3641 2581 3239 2228 
Q 2838 1875 2053 1875 
L 1259 1875 
L 1259 0 
L 628 0 
L 628 4666 
z
" transform="scale(0.015625)"/>
       <path id="DejaVuSans-70" d="M 1159 525 
L 1159 -1331 
L 581 -1331 
L 581 3500 
L 1159 3500 
L 1159 2969 
Q 1341 3281 1617 3432 
Q 1894 3584 2278 3584 
Q 2916 3584 3314 3078 
Q 3713 2572 3713 1747 
Q 3713 922 3314 415 
Q 2916 -91 2278 -91 
Q 1894 -91 1617 61 
Q 1341 213 1159 525 
z
M 3116 1747 
Q 3116 2381 2855 2742 
Q 2594 3103 2138 3103 
Q 1681 3103 1420 2742 
Q 1159 2381 1159 1747 
Q 1159 1113 1420 752 
Q 1681 391 2138 391 
Q 2594 391 2855 752 
Q 3116 1113 3116 1747 
z
" transform="scale(0.015625)"/>
      </defs>
      <use xlink:href="#DejaVuSans-33"/>
      <use xlink:href="#DejaVuSans-30" x="63.623047"/>
      <use xlink:href="#DejaVuSans-2d" x="127.246094"/>
      <use xlink:href="#DejaVuSans-34" x="163.330078"/>
      <use xlink:href="#DejaVuSans-2d" x="226.953125"/>
      <use xlink:href="#DejaVuSans-31" x="263.037109"/>
      <use xlink:href="#DejaVuSans-20" x="326.660156"/>
      <use xlink:href="#DejaVuSans-41" x="358.447266"/>
      <use xlink:href="#DejaVuSans-76" x="420.980469"/>
      <use xlink:href="#DejaVuSans-65" x="480.160156"/>
      <use xlink:href="#DejaVuSans-72" x="541.683594"/>
      <use xlink:href="#DejaVuSans-61" x="582.796875"/>
      <use xlink:href="#DejaVuSans-67" x="644.076172"/>
      <use xlink:href="#DejaVuSans-65" x="707.552734"/>
      <use xlink:href="#DejaVuSans-20" x="769.076172"/>
      <use xlink:href="#DejaVuSans-4d" x="800.863281"/>
      <use xlink:href="#DejaVuSans-53" x="887.142578"/>
      <use xlink:href="#DejaVuSans-45" x="950.619141"/>
      <use xlink:href="#DejaVuSans-20" x="1013.802734"/>
      <use xlink:href="#DejaVuSans-6f" x="1045.589844"/>
      <use xlink:href="#DejaVuSans-66" x="1106.771484"/>
      <use xlink:href="#DejaVuSans-20" x="1141.976562"/>
      <use xlink:href="#DejaVuSans-41" x="1173.763672"/>
      <use xlink:href="#DejaVuSans-6c" x="1242.171875"/>
      <use xlink:href="#DejaVuSans-6c" x="1269.955078"/>
      <use xlink:href="#DejaVuSans-20" x="1297.738281"/>
      <use xlink:href="#DejaVuSans-50" x="1329.525391"/>
      <use xlink:href="#DejaVuSans-6f" x="1386.203125"/>
      <use xlink:href="#DejaVuSans-70" x="1447.384766"/>
      <use xlink:href="#DejaVuSans-75" x="1510.861328"/>
      <use xlink:href="#DejaVuSans-6c" x="1574.240234"/>
      <use xlink:href="#DejaVuSans-61" x="1602.023438"/>
      <use xlink:href="#DejaVuSans-74" x="1663.302734"/>
      <use xlink:href="#DejaVuSans-69" x="1702.511719"/>
      <use xlink:href="#DejaVuSans-6f" x="1730.294922"/>
      <use xlink:href="#DejaVuSans-6e" x="1791.476562"/>
     </g>
    </g>
    <g id="line2d_25">
     <path d="M 1011.70375 475.983212 
L 1021.70375 475.983212 
L 1031.70375 475.983212 
" style="fill: none; stroke: #0000ff; stroke-width: 1.5; stroke-linecap: square"/>
    </g>
    <g id="text_16">
     <!-- 30-8-1 Average MSE of All Population -->
     <g transform="translate(1039.70375 479.483212)scale(0.1 -0.1)">
      <use xlink:href="#DejaVuSans-33"/>
      <use xlink:href="#DejaVuSans-30" x="63.623047"/>
      <use xlink:href="#DejaVuSans-2d" x="127.246094"/>
      <use xlink:href="#DejaVuSans-38" x="163.330078"/>
      <use xlink:href="#DejaVuSans-2d" x="226.953125"/>
      <use xlink:href="#DejaVuSans-31" x="263.037109"/>
      <use xlink:href="#DejaVuSans-20" x="326.660156"/>
      <use xlink:href="#DejaVuSans-41" x="358.447266"/>
      <use xlink:href="#DejaVuSans-76" x="420.980469"/>
      <use xlink:href="#DejaVuSans-65" x="480.160156"/>
      <use xlink:href="#DejaVuSans-72" x="541.683594"/>
      <use xlink:href="#DejaVuSans-61" x="582.796875"/>
      <use xlink:href="#DejaVuSans-67" x="644.076172"/>
      <use xlink:href="#DejaVuSans-65" x="707.552734"/>
      <use xlink:href="#DejaVuSans-20" x="769.076172"/>
      <use xlink:href="#DejaVuSans-4d" x="800.863281"/>
      <use xlink:href="#DejaVuSans-53" x="887.142578"/>
      <use xlink:href="#DejaVuSans-45" x="950.619141"/>
      <use xlink:href="#DejaVuSans-20" x="1013.802734"/>
      <use xlink:href="#DejaVuSans-6f" x="1045.589844"/>
      <use xlink:href="#DejaVuSans-66" x="1106.771484"/>
      <use xlink:href="#DejaVuSans-20" x="1141.976562"/>
      <use xlink:href="#DejaVuSans-41" x="1173.763672"/>
      <use xlink:href="#DejaVuSans-6c" x="1242.171875"/>
      <use xlink:href="#DejaVuSans-6c" x="1269.955078"/>
      <use xlink:href="#DejaVuSans-20" x="1297.738281"/>
      <use xlink:href="#DejaVuSans-50" x="1329.525391"/>
      <use xlink:href="#DejaVuSans-6f" x="1386.203125"/>
      <use xlink:href="#DejaVuSans-70" x="1447.384766"/>
      <use xlink:href="#DejaVuSans-75" x="1510.861328"/>
      <use xlink:href="#DejaVuSans-6c" x="1574.240234"/>
      <use xlink:href="#DejaVuSans-61" x="1602.023438"/>
      <use xlink:href="#DejaVuSans-74" x="1663.302734"/>
      <use xlink:href="#DejaVuSans-69" x="1702.511719"/>
      <use xlink:href="#DejaVuSans-6f" x="1730.294922"/>
      <use xlink:href="#DejaVuSans-6e" x="1791.476562"/>
     </g>
    </g>
    <g id="line2d_26">
     <path d="M 1011.70375 490.661337 
L 1021.70375 490.661337 
L 1031.70375 490.661337 
" style="fill: none; stroke: #008000; stroke-width: 1.5; stroke-linecap: square"/>
    </g>
    <g id="text_17">
     <!-- 30-8-4-1 Average MSE of All Population -->
     <g transform="translate(1039.70375 494.161337)scale(0.1 -0.1)">
      <use xlink:href="#DejaVuSans-33"/>
      <use xlink:href="#DejaVuSans-30" x="63.623047"/>
      <use xlink:href="#DejaVuSans-2d" x="127.246094"/>
      <use xlink:href="#DejaVuSans-38" x="163.330078"/>
      <use xlink:href="#DejaVuSans-2d" x="226.953125"/>
      <use xlink:href="#DejaVuSans-34" x="263.037109"/>
      <use xlink:href="#DejaVuSans-2d" x="326.660156"/>
      <use xlink:href="#DejaVuSans-31" x="362.744141"/>
      <use xlink:href="#DejaVuSans-20" x="426.367188"/>
      <use xlink:href="#DejaVuSans-41" x="458.154297"/>
      <use xlink:href="#DejaVuSans-76" x="520.6875"/>
      <use xlink:href="#DejaVuSans-65" x="579.867188"/>
      <use xlink:href="#DejaVuSans-72" x="641.390625"/>
      <use xlink:href="#DejaVuSans-61" x="682.503906"/>
      <use xlink:href="#DejaVuSans-67" x="743.783203"/>
      <use xlink:href="#DejaVuSans-65" x="807.259766"/>
      <use xlink:href="#DejaVuSans-20" x="868.783203"/>
      <use xlink:href="#DejaVuSans-4d" x="900.570312"/>
      <use xlink:href="#DejaVuSans-53" x="986.849609"/>
      <use xlink:href="#DejaVuSans-45" x="1050.326172"/>
      <use xlink:href="#DejaVuSans-20" x="1113.509766"/>
      <use xlink:href="#DejaVuSans-6f" x="1145.296875"/>
      <use xlink:href="#DejaVuSans-66" x="1206.478516"/>
      <use xlink:href="#DejaVuSans-20" x="1241.683594"/>
      <use xlink:href="#DejaVuSans-41" x="1273.470703"/>
      <use xlink:href="#DejaVuSans-6c" x="1341.878906"/>
      <use xlink:href="#DejaVuSans-6c" x="1369.662109"/>
      <use xlink:href="#DejaVuSans-20" x="1397.445312"/>
      <use xlink:href="#DejaVuSans-50" x="1429.232422"/>
      <use xlink:href="#DejaVuSans-6f" x="1485.910156"/>
      <use xlink:href="#DejaVuSans-70" x="1547.091797"/>
      <use xlink:href="#DejaVuSans-75" x="1610.568359"/>
      <use xlink:href="#DejaVuSans-6c" x="1673.947266"/>
      <use xlink:href="#DejaVuSans-61" x="1701.730469"/>
      <use xlink:href="#DejaVuSans-74" x="1763.009766"/>
      <use xlink:href="#DejaVuSans-69" x="1802.21875"/>
      <use xlink:href="#DejaVuSans-6f" x="1830.001953"/>
      <use xlink:href="#DejaVuSans-6e" x="1891.183594"/>
     </g>
    </g>
    <g id="line2d_27">
     <path d="M 1011.70375 505.339462 
L 1021.70375 505.339462 
L 1031.70375 505.339462 
" style="fill: none; stroke: #ff0000; stroke-width: 1.5; stroke-linecap: square"/>
    </g>
    <g id="text_18">
     <!-- 30-4-1 MSE of Fittest Individual -->
     <g transform="translate(1039.70375 508.839462)scale(0.1 -0.1)">
      <defs>
       <path id="DejaVuSans-46" d="M 628 4666 
L 3309 4666 
L 3309 4134 
L 1259 4134 
L 1259 2759 
L 3109 2759 
L 3109 2228 
L 1259 2228 
L 1259 0 
L 628 0 
L 628 4666 
z
" transform="scale(0.015625)"/>
       <path id="DejaVuSans-49" d="M 628 4666 
L 1259 4666 
L 1259 0 
L 628 0 
L 628 4666 
z
" transform="scale(0.015625)"/>
       <path id="DejaVuSans-64" d="M 2906 2969 
L 2906 4863 
L 3481 4863 
L 3481 0 
L 2906 0 
L 2906 525 
Q 2725 213 2448 61 
Q 2172 -91 1784 -91 
Q 1150 -91 751 415 
Q 353 922 353 1747 
Q 353 2572 751 3078 
Q 1150 3584 1784 3584 
Q 2172 3584 2448 3432 
Q 2725 3281 2906 2969 
z
M 947 1747 
Q 947 1113 1208 752 
Q 1469 391 1925 391 
Q 2381 391 2643 752 
Q 2906 1113 2906 1747 
Q 2906 2381 2643 2742 
Q 2381 3103 1925 3103 
Q 1469 3103 1208 2742 
Q 947 2381 947 1747 
z
" transform="scale(0.015625)"/>
      </defs>
      <use xlink:href="#DejaVuSans-33"/>
      <use xlink:href="#DejaVuSans-30" x="63.623047"/>
      <use xlink:href="#DejaVuSans-2d" x="127.246094"/>
      <use xlink:href="#DejaVuSans-34" x="163.330078"/>
      <use xlink:href="#DejaVuSans-2d" x="226.953125"/>
      <use xlink:href="#DejaVuSans-31" x="263.037109"/>
      <use xlink:href="#DejaVuSans-20" x="326.660156"/>
      <use xlink:href="#DejaVuSans-4d" x="358.447266"/>
      <use xlink:href="#DejaVuSans-53" x="444.726562"/>
      <use xlink:href="#DejaVuSans-45" x="508.203125"/>
      <use xlink:href="#DejaVuSans-20" x="571.386719"/>
      <use xlink:href="#DejaVuSans-6f" x="603.173828"/>
      <use xlink:href="#DejaVuSans-66" x="664.355469"/>
      <use xlink:href="#DejaVuSans-20" x="699.560547"/>
      <use xlink:href="#DejaVuSans-46" x="731.347656"/>
      <use xlink:href="#DejaVuSans-69" x="781.617188"/>
      <use xlink:href="#DejaVuSans-74" x="809.400391"/>
      <use xlink:href="#DejaVuSans-74" x="848.609375"/>
      <use xlink:href="#DejaVuSans-65" x="887.818359"/>
      <use xlink:href="#DejaVuSans-73" x="949.341797"/>
      <use xlink:href="#DejaVuSans-74" x="1001.441406"/>
      <use xlink:href="#DejaVuSans-20" x="1040.650391"/>
      <use xlink:href="#DejaVuSans-49" x="1072.4375"/>
      <use xlink:href="#DejaVuSans-6e" x="1101.929688"/>
      <use xlink:href="#DejaVuSans-64" x="1165.308594"/>
      <use xlink:href="#DejaVuSans-69" x="1228.785156"/>
      <use xlink:href="#DejaVuSans-76" x="1256.568359"/>
      <use xlink:href="#DejaVuSans-69" x="1315.748047"/>
      <use xlink:href="#DejaVuSans-64" x="1343.53125"/>
      <use xlink:href="#DejaVuSans-75" x="1407.007812"/>
      <use xlink:href="#DejaVuSans-61" x="1470.386719"/>
      <use xlink:href="#DejaVuSans-6c" x="1531.666016"/>
     </g>
    </g>
    <g id="line2d_28">
     <path d="M 1011.70375 520.017587 
L 1021.70375 520.017587 
L 1031.70375 520.017587 
" style="fill: none; stroke: #0000ff; stroke-width: 1.5; stroke-linecap: square"/>
    </g>
    <g id="text_19">
     <!-- 30-8-1 MSE of Fittest Individual -->
     <g transform="translate(1039.70375 523.517587)scale(0.1 -0.1)">
      <use xlink:href="#DejaVuSans-33"/>
      <use xlink:href="#DejaVuSans-30" x="63.623047"/>
      <use xlink:href="#DejaVuSans-2d" x="127.246094"/>
      <use xlink:href="#DejaVuSans-38" x="163.330078"/>
      <use xlink:href="#DejaVuSans-2d" x="226.953125"/>
      <use xlink:href="#DejaVuSans-31" x="263.037109"/>
      <use xlink:href="#DejaVuSans-20" x="326.660156"/>
      <use xlink:href="#DejaVuSans-4d" x="358.447266"/>
      <use xlink:href="#DejaVuSans-53" x="444.726562"/>
      <use xlink:href="#DejaVuSans-45" x="508.203125"/>
      <use xlink:href="#DejaVuSans-20" x="571.386719"/>
      <use xlink:href="#DejaVuSans-6f" x="603.173828"/>
      <use xlink:href="#DejaVuSans-66" x="664.355469"/>
      <use xlink:href="#DejaVuSans-20" x="699.560547"/>
      <use xlink:href="#DejaVuSans-46" x="731.347656"/>
      <use xlink:href="#DejaVuSans-69" x="781.617188"/>
      <use xlink:href="#DejaVuSans-74" x="809.400391"/>
      <use xlink:href="#DejaVuSans-74" x="848.609375"/>
      <use xlink:href="#DejaVuSans-65" x="887.818359"/>
      <use xlink:href="#DejaVuSans-73" x="949.341797"/>
      <use xlink:href="#DejaVuSans-74" x="1001.441406"/>
      <use xlink:href="#DejaVuSans-20" x="1040.650391"/>
      <use xlink:href="#DejaVuSans-49" x="1072.4375"/>
      <use xlink:href="#DejaVuSans-6e" x="1101.929688"/>
      <use xlink:href="#DejaVuSans-64" x="1165.308594"/>
      <use xlink:href="#DejaVuSans-69" x="1228.785156"/>
      <use xlink:href="#DejaVuSans-76" x="1256.568359"/>
      <use xlink:href="#DejaVuSans-69" x="1315.748047"/>
      <use xlink:href="#DejaVuSans-64" x="1343.53125"/>
      <use xlink:href="#DejaVuSans-75" x="1407.007812"/>
      <use xlink:href="#DejaVuSans-61" x="1470.386719"/>
      <use xlink:href="#DejaVuSans-6c" x="1531.666016"/>
     </g>
    </g>
    <g id="line2d_29">
     <path d="M 1011.70375 534.695712 
L 1021.70375 534.695712 
L 1031.70375 534.695712 
" style="fill: none; stroke: #008000; stroke-width: 1.5; stroke-linecap: square"/>
    </g>
    <g id="text_20">
     <!-- 30-8-4-1 MSE of Fittest Individual -->
     <g transform="translate(1039.70375 538.195712)scale(0.1 -0.1)">
      <use xlink:href="#DejaVuSans-33"/>
      <use xlink:href="#DejaVuSans-30" x="63.623047"/>
      <use xlink:href="#DejaVuSans-2d" x="127.246094"/>
      <use xlink:href="#DejaVuSans-38" x="163.330078"/>
      <use xlink:href="#DejaVuSans-2d" x="226.953125"/>
      <use xlink:href="#DejaVuSans-34" x="263.037109"/>
      <use xlink:href="#DejaVuSans-2d" x="326.660156"/>
      <use xlink:href="#DejaVuSans-31" x="362.744141"/>
      <use xlink:href="#DejaVuSans-20" x="426.367188"/>
      <use xlink:href="#DejaVuSans-4d" x="458.154297"/>
      <use xlink:href="#DejaVuSans-53" x="544.433594"/>
      <use xlink:href="#DejaVuSans-45" x="607.910156"/>
      <use xlink:href="#DejaVuSans-20" x="671.09375"/>
      <use xlink:href="#DejaVuSans-6f" x="702.880859"/>
      <use xlink:href="#DejaVuSans-66" x="764.0625"/>
      <use xlink:href="#DejaVuSans-20" x="799.267578"/>
      <use xlink:href="#DejaVuSans-46" x="831.054688"/>
      <use xlink:href="#DejaVuSans-69" x="881.324219"/>
      <use xlink:href="#DejaVuSans-74" x="909.107422"/>
      <use xlink:href="#DejaVuSans-74" x="948.316406"/>
      <use xlink:href="#DejaVuSans-65" x="987.525391"/>
      <use xlink:href="#DejaVuSans-73" x="1049.048828"/>
      <use xlink:href="#DejaVuSans-74" x="1101.148438"/>
      <use xlink:href="#DejaVuSans-20" x="1140.357422"/>
      <use xlink:href="#DejaVuSans-49" x="1172.144531"/>
      <use xlink:href="#DejaVuSans-6e" x="1201.636719"/>
      <use xlink:href="#DejaVuSans-64" x="1265.015625"/>
      <use xlink:href="#DejaVuSans-69" x="1328.492188"/>
      <use xlink:href="#DejaVuSans-76" x="1356.275391"/>
      <use xlink:href="#DejaVuSans-69" x="1415.455078"/>
      <use xlink:href="#DejaVuSans-64" x="1443.238281"/>
      <use xlink:href="#DejaVuSans-75" x="1506.714844"/>
      <use xlink:href="#DejaVuSans-61" x="1570.09375"/>
      <use xlink:href="#DejaVuSans-6c" x="1631.373047"/>
     </g>
    </g>
   </g>
  </g>
 </g>
 <defs>
  <clipPath id="p46fb5d51c2">
   <rect x="172.8" y="85.104" width="1071.36" height="546.084"/>
  </clipPath>
 </defs>
</svg>
